<?xml version="1.0" standalone="no"?>
<!DOCTYPE svg PUBLIC "-//W3C//DTD SVG 20010904//EN"
 "http://www.w3.org/TR/2001/REC-SVG-20010904/DTD/svg10.dtd">
<svg version="1.0" xmlns="http://www.w3.org/2000/svg"
 width="700.000000pt" height="700.000000pt" viewBox="0 0 700.000000 700.000000"
 preserveAspectRatio="xMidYMid meet">
<metadata>
Created by potrace 1.11, written by Peter Selinger 2001-2013
</metadata>
<g transform="translate(0.000000,700.000000) scale(0.100000,-0.100000)"
fill="#000000" stroke="none">
<path d="M465 6988 c-163 -31 -332 -164 -404 -320 -22 -45 -44 -110 -50 -142
-15 -84 -15 -5968 0 -6052 31 -172 161 -339 321 -413 45 -22 110 -44 142 -50
84 -15 5968 -15 6052 0 172 31 339 161 413 321 22 45 44 110 50 142 15 84 15
5968 0 6052 -31 172 -161 339 -321 413 -45 22 -110 44 -142 50 -77 14 -5987
13 -6061 -1z m1093 -188 c165 -119 394 -220 597 -264 39 -8 127 -20 198 -26
386 -35 775 82 1105 331 l42 33 43 -33 c329 -249 718 -366 1104 -331 71 6 160
18 198 26 204 44 432 145 599 265 l99 71 663 -663 c365 -365 664 -668 664
-672 0 -4 -19 -36 -42 -69 -54 -80 -156 -280 -196 -386 -107 -281 -148 -528
-139 -846 8 -311 57 -527 190 -837 121 -281 166 -448 187 -685 22 -251 -19
-549 -110 -794 -237 -638 -816 -1103 -1485 -1194 -66 -9 -229 -17 -410 -20
-320 -5 -408 -14 -570 -61 -266 -76 -485 -206 -687 -407 l-108 -106 -108 106
c-202 201 -421 331 -687 407 -162 47 -250 56 -570 61 -181 3 -344 11 -410 20
-669 91 -1248 556 -1485 1194 -91 245 -132 543 -110 794 21 237 66 404 187
685 133 310 182 526 190 837 9 318 -32 565 -139 846 -40 106 -142 306 -196
386 -23 33 -42 65 -42 69 0 7 1321 1333 1328 1333 2 0 47 -31 100 -70z"/>
<path d="M2008 5377 c-512 -382 -910 -956 -1112 -1602 -114 -364 -154 -851
-90 -1098 85 -330 334 -611 663 -748 282 -117 665 -124 952 -16 167 63 296
144 417 261 138 133 237 303 288 491 27 100 27 370 0 469 -55 206 -158 369
-327 520 -95 85 -140 115 -253 172 -212 108 -419 151 -681 140 -88 -4 -195
-12 -237 -20 -43 -7 -78 -11 -78 -9 0 11 102 203 153 288 112 187 196 295 362
461 88 88 196 189 240 224 44 35 84 67 89 71 10 8 -264 469 -279 469 -5 0 -54
-33 -107 -73z m152 -1982 c191 -59 322 -160 393 -303 41 -83 42 -89 42 -181 0
-84 -4 -104 -28 -156 -79 -168 -241 -293 -444 -339 -324 -73 -671 93 -763 364
-28 82 -24 206 8 290 59 153 240 289 447 336 79 18 270 12 345 -11z"/>
<path d="M5101 5394 c-646 -478 -1104 -1235 -1225 -2024 -25 -159 -36 -402
-25 -522 24 -251 119 -462 291 -644 230 -243 531 -367 893 -367 222 0 406 42
588 134 116 58 191 112 284 202 228 221 339 514 312 820 -31 345 -253 654
-599 831 -217 111 -418 153 -685 142 -88 -4 -195 -12 -237 -20 -43 -7 -78 -11
-78 -8 0 2 25 52 55 112 68 132 177 308 259 415 75 100 311 338 431 435 50 40
94 77 99 81 11 10 -262 469 -278 469 -6 -1 -45 -26 -85 -56z m154 -2008 c109
-37 188 -81 253 -141 273 -248 187 -619 -182 -785 -270 -122 -611 -56 -795
154 -78 90 -112 167 -118 268 -14 212 110 384 347 483 103 43 172 55 300 51
92 -3 131 -9 195 -30z"/>
</g>
</svg>
